
  <svg xmlns="http://www.w3.org/2000/svg" viewBox="0 0 240 64" width="240" height="64">
  <defs>
    <style>
      .c1-primary { fill: var(--theme-accent, currentColor); }
      .c1-secondary { fill: var(--theme-accent-2, currentColor); opacity: 0.6; }
      .c1-text { fill: var(--theme-text, currentColor); font-family: ui-monospace, SFMono-Regular, Menlo, Monaco, Consolas, monospace; font-weight: 600; font-size: 28px; letter-spacing: -0.02em; }
    </style>
    <symbol id="c1-icon" viewBox="0 0 64 64">
      <rect x="8" y="8" width="8" height="48" class="c1-primary"></rect>
      <rect x="8" y="8" width="32" height="8" class="c1-primary"></rect>
      <rect x="40" y="8" width="4" height="8" class="c1-secondary"></rect>
      <rect x="46" y="8" width="6" height="8" class="c1-secondary"></rect>
      <rect x="8" y="28" width="28" height="8" class="c1-primary"></rect>
      <rect x="36" y="28" width="3" height="8" class="c1-secondary"></rect>
      <rect x="41" y="28" width="5" height="8" class="c1-secondary"></rect>
      <rect x="8" y="48" width="32" height="8" class="c1-primary"></rect>
      <rect x="42" y="48" width="2" height="8" class="c1-secondary"></rect>
      <rect x="46" y="48" width="6" height="8" class="c1-secondary"></rect>
    </symbol>
  </defs>
  <use href="#c1-icon" x="0" y="0" width="64" height="64"></use>
  <text x="80" y="42" class="c1-text">EFSDB</text>
</svg>

<svg xmlns="http://www.w3.org/2000/svg" viewBox="0 0 240 64" width="240" height="64">
  <defs>
    <style>
      .c2-stroke { stroke: var(--theme-accent, currentColor); stroke-width: 3; fill: none; stroke-linecap: round; stroke-linejoin: round; }
      .c2-fill { fill: var(--theme-accent-2, currentColor); }
      .c2-text { fill: var(--theme-text, currentColor); font-family: system-ui, -apple-system, BlinkMacSystemFont, 'Segoe UI', Roboto, sans-serif; font-weight: 700; font-size: 28px; letter-spacing: 0.02em; }
    </style>
    <symbol id="c2-icon" viewBox="0 0 64 64">
      <path d="M32 4 L56 18 V46 L32 60 L8 46 V18 Z" class="c2-stroke"></path>
      <circle cx="32" cy="20" r="3" class="c2-fill"></circle>
      <circle cx="20" cy="28" r="3" class="c2-fill"></circle>
      <circle cx="44" cy="28" r="3" class="c2-fill"></circle>
      <circle cx="32" cy="44" r="3" class="c2-fill"></circle>
      <path d="M32 20 L20 28 M32 20 L44 28 M20 28 L32 44 M44 28 L32 44" stroke="var(--theme-border, currentColor)" stroke-width="1.5" opacity="0.5" fill="none"></path>
    </symbol>
  </defs>
  <use href="#c2-icon" x="0" y="0" width="64" height="64"></use>
  <text x="80" y="42" class="c2-text">EFSDB</text>
</svg>

<svg xmlns="http://www.w3.org/2000/svg" viewBox="0 0 240 64" width="240" height="64">
  <defs>
    <style>
      .c3-primary { fill: var(--theme-accent, currentColor); }
      .c3-surface { fill: var(--theme-surface, transparent); stroke: var(--theme-accent, currentColor); stroke-width: 2; }
      .c3-text { fill: var(--theme-text, currentColor); font-family: ui-sans-serif, system-ui, -apple-system, sans-serif; font-weight: 600; font-size: 28px; letter-spacing: -0.01em; }
    </style>
    <symbol id="c3-icon" viewBox="0 0 64 64">
      <rect x="12" y="8" width="40" height="14" class="c3-primary" rx="2"></rect>
      <rect x="12" y="25" width="40" height="14" class="c3-surface" rx="2"></rect>
      <rect x="12" y="42" width="40" height="14" class="c3-primary" rx="2" opacity="0.8"></rect>
      <line x1="20" y1="22" x2="20" y2="25" stroke="var(--theme-border, currentColor)" stroke-width="2"></line>
      <line x1="32" y1="22" x2="32" y2="25" stroke="var(--theme-border, currentColor)" stroke-width="2"></line>
      <line x1="44" y1="22" x2="44" y2="25" stroke="var(--theme-border, currentColor)" stroke-width="2"></line>
      <line x1="20" y1="39" x2="20" y2="42" stroke="var(--theme-border, currentColor)" stroke-width="2"></line>
      <line x1="32" y1="39" x2="32" y2="42" stroke="var(--theme-border, currentColor)" stroke-width="2"></line>
      <line x1="44" y1="39" x2="44" y2="42" stroke="var(--theme-border, currentColor)" stroke-width="2"></line>
    </symbol>
  </defs>
  <use href="#c3-icon" x="0" y="0" width="64" height="64"></use>
  <text x="80" y="42" class="c3-text">EFSDB</text>
</svg>
